<svg width="26" height="43" viewBox="0 0 26 43" fill="none" xmlns="http://www.w3.org/2000/svg">
<path d="M1.87144 1.21475C1.27387 1.81249 0.938181 2.6231 0.938181 3.46831C0.938181 4.31352 1.27387 5.12413 1.87144 5.72187L17.6496 21.5L1.87144 37.2781C1.29081 37.8793 0.969527 38.6845 0.97679 39.5202C0.984053 40.356 1.31928 41.1554 1.91027 41.7464C2.50125 42.3374 3.30072 42.6726 4.13647 42.6799C4.97222 42.6872 5.77739 42.3659 6.37856 41.7853L24.4102 23.7536C25.0078 23.1558 25.3435 22.3452 25.3435 21.5C25.3435 20.6548 25.0078 19.8442 24.4102 19.2464L6.37856 1.21475C5.78082 0.617186 4.97021 0.281493 4.125 0.281493C3.27979 0.281493 2.46918 0.617186 1.87144 1.21475Z" fill="white"/>
</svg>
