<svg width="40" height="41" viewBox="0 0 40 41" fill="none" xmlns="http://www.w3.org/2000/svg">
<path d="M31.75 8.68334C30.2217 7.14018 28.4017 5.91662 26.3958 5.08395C24.39 4.25127 22.2384 3.82615 20.0666 3.83334C10.9666 3.83334 3.54996 11.25 3.54996 20.35C3.54996 23.2667 4.31663 26.1 5.74996 28.6L3.41663 37.1667L12.1666 34.8667C14.5833 36.1833 17.3 36.8833 20.0666 36.8833C29.1666 36.8833 36.5833 29.4667 36.5833 20.3667C36.5833 15.95 34.8666 11.8 31.75 8.68334ZM20.0666 34.0833C17.6 34.0833 15.1833 33.4167 13.0666 32.1667L12.5666 31.8667L7.36663 33.2333L8.74996 28.1667L8.41663 27.65C7.04587 25.4618 6.31817 22.9321 6.31663 20.35C6.31663 12.7833 12.4833 6.61667 20.05 6.61667C23.7166 6.61667 27.1666 8.05001 29.75 10.65C31.0293 11.9231 32.0432 13.4376 32.7327 15.1056C33.4222 16.7735 33.7736 18.5618 33.7666 20.3667C33.8 27.9333 27.6333 34.0833 20.0666 34.0833ZM27.6 23.8167C27.1833 23.6167 25.15 22.6167 24.7833 22.4667C24.4 22.3333 24.1333 22.2667 23.85 22.6667C23.5666 23.0833 22.7833 24.0167 22.55 24.2833C22.3166 24.5667 22.0666 24.6 21.65 24.3833C21.2333 24.1833 19.9 23.7333 18.3333 22.3333C17.1 21.2333 16.2833 19.8833 16.0333 19.4667C15.8 19.05 16 18.8333 16.2166 18.6167C16.4 18.4333 16.6333 18.1333 16.8333 17.9C17.0333 17.6667 17.1166 17.4833 17.25 17.2167C17.3833 16.9333 17.3166 16.7 17.2166 16.5C17.1166 16.3 16.2833 14.2667 15.95 13.4333C15.6166 12.6333 15.2666 12.7333 15.0166 12.7167H14.2166C13.9333 12.7167 13.5 12.8167 13.1166 13.2333C12.75 13.65 11.6833 14.65 11.6833 16.6833C11.6833 18.7167 13.1666 20.6833 13.3666 20.95C13.5666 21.2333 16.2833 25.4 20.4166 27.1833C21.4 27.6167 22.1666 27.8667 22.7666 28.05C23.75 28.3667 24.65 28.3167 25.3666 28.2167C26.1666 28.1 27.8166 27.2167 28.15 26.25C28.5 25.2833 28.5 24.4667 28.3833 24.2833C28.2666 24.1 28.0166 24.0167 27.6 23.8167Z" fill="white"/>
</svg>
