<svg width="28" height="28" viewBox="0 0 28 28" fill="none" xmlns="http://www.w3.org/2000/svg">
<path d="M23.4 4.54667C22.1774 3.31214 20.7214 2.33329 19.1167 1.66715C17.512 1.00101 15.7908 0.660911 14.0533 0.666667C6.77334 0.666667 0.840004 6.6 0.840004 13.88C0.840004 16.2133 1.45334 18.48 2.6 20.48L0.733337 27.3333L7.73334 25.4933C9.66667 26.5467 11.84 27.1067 14.0533 27.1067C21.3333 27.1067 27.2667 21.1733 27.2667 13.8933C27.2667 10.36 25.8933 7.04 23.4 4.54667ZM14.0533 24.8667C12.08 24.8667 10.1467 24.3333 8.45334 23.3333L8.05334 23.0933L3.89334 24.1867L5 20.1333L4.73334 19.72C3.63673 17.9694 3.05457 15.9457 3.05334 13.88C3.05334 7.82667 7.98667 2.89333 14.04 2.89333C16.9733 2.89333 19.7333 4.04 21.8 6.12C22.8235 7.13848 23.6346 8.35006 24.1862 9.68444C24.7378 11.0188 25.0189 12.4494 25.0133 13.8933C25.04 19.9467 20.1067 24.8667 14.0533 24.8667ZM20.08 16.6533C19.7467 16.4933 18.12 15.6933 17.8267 15.5733C17.52 15.4667 17.3067 15.4133 17.08 15.7333C16.8533 16.0667 16.2267 16.8133 16.04 17.0267C15.8533 17.2533 15.6533 17.28 15.32 17.1067C14.9867 16.9467 13.92 16.5867 12.6667 15.4667C11.68 14.5867 11.0267 13.5067 10.8267 13.1733C10.64 12.84 10.8 12.6667 10.9733 12.4933C11.12 12.3467 11.3067 12.1067 11.4667 11.92C11.6267 11.7333 11.6933 11.5867 11.8 11.3733C11.9067 11.1467 11.8533 10.96 11.7733 10.8C11.6933 10.64 11.0267 9.01333 10.76 8.34667C10.4933 7.70667 10.2133 7.78667 10.0133 7.77333H9.37334C9.14667 7.77333 8.8 7.85333 8.49334 8.18667C8.2 8.52 7.34667 9.32 7.34667 10.9467C7.34667 12.5733 8.53334 14.1467 8.69334 14.36C8.85334 14.5867 11.0267 17.92 14.3333 19.3467C15.12 19.6933 15.7333 19.8933 16.2133 20.04C17 20.2933 17.72 20.2533 18.2933 20.1733C18.9333 20.08 20.2533 19.3733 20.52 18.6C20.8 17.8267 20.8 17.1733 20.7067 17.0267C20.6133 16.88 20.4133 16.8133 20.08 16.6533Z" fill="black"/>
</svg>
